<svg width="666" height="111" viewBox="0 0 666 111" fill="none" xmlns="http://www.w3.org/2000/svg">
<path opacity="0.03" d="M25.7012 2.35938V109H0.0664062V2.35938H25.7012ZM132.854 2.35938V109H107.22L69.5 42.6426V109H43.792V2.35938H69.5L107.22 68.7168V2.35938H132.854ZM233.709 2.35938V109H208.001V2.35938H233.709ZM265.789 2.35938V22.208H176.653V2.35938H265.789ZM364.886 53.5557V57.877C364.886 66.0312 363.738 73.3555 361.443 79.8496C359.197 86.2949 355.999 91.8125 351.849 96.4023C347.698 100.943 342.791 104.435 337.127 106.876C331.463 109.269 325.213 110.465 318.377 110.465C311.492 110.465 305.193 109.269 299.48 106.876C293.816 104.435 288.885 100.943 284.686 96.4023C280.535 91.8125 277.312 86.2949 275.018 79.8496C272.771 73.3555 271.648 66.0312 271.648 57.877V53.5557C271.648 45.4014 272.771 38.0771 275.018 31.583C277.312 25.0889 280.511 19.5713 284.612 15.0303C288.763 10.4404 293.67 6.94922 299.334 4.55664C305.047 2.11523 311.346 0.894531 318.23 0.894531C325.066 0.894531 331.316 2.11523 336.98 4.55664C342.693 6.94922 347.625 10.4404 351.775 15.0303C355.926 19.5713 359.148 25.0889 361.443 31.583C363.738 38.0771 364.886 45.4014 364.886 53.5557ZM338.812 57.877V53.4092C338.812 48.1357 338.348 43.4971 337.42 39.4932C336.541 35.4404 335.223 32.0469 333.465 29.3125C331.707 26.5781 329.534 24.5273 326.946 23.1602C324.407 21.7441 321.502 21.0361 318.23 21.0361C314.812 21.0361 311.834 21.7441 309.295 23.1602C306.756 24.5273 304.632 26.5781 302.923 29.3125C301.214 32.0469 299.92 35.4404 299.041 39.4932C298.211 43.4971 297.796 48.1357 297.796 53.4092V57.877C297.796 63.1016 298.211 67.7402 299.041 71.793C299.92 75.7969 301.214 79.1904 302.923 81.9736C304.681 84.7568 306.829 86.8564 309.368 88.2725C311.956 89.6885 314.959 90.3965 318.377 90.3965C321.648 90.3965 324.554 89.6885 327.093 88.2725C329.632 86.8564 331.756 84.7568 333.465 81.9736C335.223 79.1904 336.541 75.7969 337.42 71.793C338.348 67.7402 338.812 63.1016 338.812 57.877ZM436.077 2.35938H461.785V72.0127C461.785 80.3135 460.052 87.3447 456.585 93.1064C453.118 98.8193 448.26 103.141 442.01 106.07C435.76 109 428.411 110.465 419.964 110.465C411.614 110.465 404.266 109 397.918 106.07C391.619 103.141 386.688 98.8193 383.123 93.1064C379.607 87.3447 377.85 80.3135 377.85 72.0127V2.35938H403.631V72.0127C403.631 76.4072 404.266 79.9961 405.535 82.7793C406.805 85.5137 408.66 87.5156 411.102 88.7852C413.543 90.0547 416.497 90.6895 419.964 90.6895C423.479 90.6895 426.434 90.0547 428.826 88.7852C431.219 87.5156 433.025 85.5137 434.246 82.7793C435.467 79.9961 436.077 76.4072 436.077 72.0127V2.35938ZM538.616 72.8916H564.251C563.909 80.3135 561.907 86.8564 558.245 92.5205C554.583 98.1846 549.505 102.604 543.011 105.777C536.565 108.902 528.948 110.465 520.159 110.465C513.03 110.465 506.658 109.269 501.043 106.876C495.477 104.483 490.74 101.041 486.834 96.5488C482.977 92.0566 480.022 86.6123 477.972 80.2158C475.97 73.8193 474.969 66.6172 474.969 58.6094V52.8232C474.969 44.8154 476.019 37.6133 478.118 31.2168C480.267 24.7715 483.294 19.3027 487.2 14.8105C491.155 10.2695 495.892 6.80273 501.409 4.41016C506.927 2.01758 513.055 0.821289 519.793 0.821289C529.07 0.821289 536.907 2.48145 543.304 5.80176C549.7 9.12207 554.656 13.6875 558.172 19.498C561.688 25.2598 563.763 31.8271 564.397 39.2002H538.763C538.665 35.1963 537.981 31.8516 536.712 29.166C535.442 26.4316 533.44 24.3809 530.706 23.0137C527.972 21.6465 524.334 20.9629 519.793 20.9629C516.619 20.9629 513.86 21.5488 511.517 22.7207C509.173 23.8926 507.22 25.748 505.657 28.2871C504.095 30.8262 502.923 34.1221 502.142 38.1748C501.409 42.1787 501.043 47.0127 501.043 52.6768V58.6094C501.043 64.2734 501.385 69.1074 502.068 73.1113C502.752 77.1152 503.851 80.3867 505.364 82.9258C506.878 85.4648 508.831 87.3447 511.224 88.5654C513.665 89.7373 516.644 90.3232 520.159 90.3232C524.065 90.3232 527.361 89.7129 530.047 88.4922C532.732 87.2227 534.808 85.3184 536.272 82.7793C537.737 80.1914 538.519 76.8955 538.616 72.8916ZM648.26 44.6934V64.4688H593.548V44.6934H648.26ZM602.117 2.35938V109H576.409V2.35938H602.117ZM665.545 2.35938V109H639.91V2.35938H665.545Z" fill="#002881"/>
</svg>
