 <svg width="594" height="147" viewBox="0 0 594 147" fill="none" xmlns="http://www.w3.org/2000/svg">
      <path opacity="0.03" d="M46.3672 145H14.8242L15.0195 118.633H46.3672C52.8776 118.633 58.3789 117.07 62.8711 113.945C67.4284 110.82 70.8789 106.165 73.2227 99.9805C75.6315 93.7305 76.8359 86.0482 76.8359 76.9336V70.7812C76.8359 63.9453 76.1523 57.9557 74.7852 52.8125C73.4831 47.6042 71.5299 43.2747 68.9258 39.8242C66.3216 36.3086 63.0664 33.6719 59.1602 31.9141C55.319 30.1562 50.8919 29.2773 45.8789 29.2773H14.2383V2.8125H45.8789C55.5143 2.8125 64.3359 4.47266 72.3438 7.79297C80.4167 11.0482 87.3828 15.7357 93.2422 21.8555C99.1667 27.9102 103.724 35.1042 106.914 43.4375C110.169 51.7057 111.797 60.8854 111.797 70.9766V76.9336C111.797 86.9596 110.169 96.1393 106.914 104.473C103.724 112.806 99.1992 120 93.3398 126.055C87.4805 132.109 80.5469 136.797 72.5391 140.117C64.5964 143.372 55.8724 145 46.3672 145ZM34.4531 2.8125V145H0.175781V2.8125H34.4531ZM227.52 118.633V145H151.738V118.633H227.52ZM163.945 2.8125V145H129.668V2.8125H163.945ZM217.754 59.2578V84.7461H151.738V59.2578H217.754ZM227.812 2.8125V29.2773H151.738V2.8125H227.812ZM301.836 32.6953L267.168 145H230.352L282.598 2.8125H305.938L301.836 32.6953ZM330.547 145L295.781 32.6953L291.289 2.8125H314.922L367.461 145H330.547ZM329.18 91.9727V118.438H256.23V91.9727H329.18ZM471.855 118.633V145H399.98V118.633H471.855ZM412.188 2.8125V145H377.91V2.8125H412.188ZM559.551 107.207C559.551 104.993 559.225 103.008 558.574 101.25C557.923 99.4271 556.719 97.7344 554.961 96.1719C553.203 94.6094 550.664 93.0469 547.344 91.4844C544.089 89.8568 539.792 88.1641 534.453 86.4062C528.203 84.3229 522.181 81.9792 516.387 79.375C510.592 76.7057 505.417 73.6133 500.859 70.0977C496.302 66.5169 492.689 62.3503 490.02 57.5977C487.35 52.7799 486.016 47.181 486.016 40.8008C486.016 34.681 487.383 29.1797 490.117 24.2969C492.852 19.349 496.66 15.1497 501.543 11.6992C506.491 8.18359 512.285 5.51432 518.926 3.69141C525.566 1.80339 532.826 0.859375 540.703 0.859375C551.12 0.859375 560.299 2.68229 568.242 6.32812C576.25 9.90885 582.5 15.0195 586.992 21.6602C591.549 28.2357 593.828 36.0156 593.828 45H559.746C559.746 41.4193 558.997 38.2617 557.5 35.5273C556.068 32.793 553.887 30.6445 550.957 29.082C548.027 27.5195 544.349 26.7383 539.922 26.7383C535.625 26.7383 532.012 27.3893 529.082 28.6914C526.152 29.9935 523.939 31.7513 522.441 33.9648C520.944 36.1133 520.195 38.4896 520.195 41.0938C520.195 43.2422 520.781 45.1953 521.953 46.9531C523.19 48.6458 524.915 50.2409 527.129 51.7383C529.408 53.2357 532.142 54.668 535.332 56.0352C538.587 57.4023 542.233 58.737 546.27 60.0391C553.822 62.4479 560.527 65.1497 566.387 68.1445C572.311 71.0742 577.292 74.4271 581.328 78.2031C585.43 81.9141 588.522 86.1458 590.605 90.8984C592.754 95.651 593.828 101.022 593.828 107.012C593.828 113.392 592.591 119.056 590.117 124.004C587.643 128.952 584.095 133.151 579.473 136.602C574.85 139.987 569.316 142.559 562.871 144.316C556.426 146.074 549.232 146.953 541.289 146.953C533.997 146.953 526.803 146.042 519.707 144.219C512.676 142.331 506.296 139.466 500.566 135.625C494.837 131.719 490.247 126.738 486.797 120.684C483.411 114.564 481.719 107.305 481.719 98.9062H516.094C516.094 103.073 516.647 106.589 517.754 109.453C518.861 112.318 520.488 114.629 522.637 116.387C524.785 118.079 527.422 119.316 530.547 120.098C533.672 120.814 537.253 121.172 541.289 121.172C545.651 121.172 549.167 120.553 551.836 119.316C554.505 118.014 556.458 116.322 557.695 114.238C558.932 112.09 559.551 109.746 559.551 107.207Z" fill="#002881"/>
      </svg>