<svg width="565" height="147" viewBox="0 0 565 147" fill="none" xmlns="http://www.w3.org/2000/svg">
<path opacity="0.03" d="M34.3867 2.8125V145H0.207031V2.8125H34.3867ZM177.258 2.8125V145H143.078L92.7852 56.5234V145H58.5078V2.8125H92.7852L143.078 91.2891V2.8125H177.258ZM272.18 107.207C272.18 104.993 271.854 103.008 271.203 101.25C270.552 99.4271 269.348 97.7344 267.59 96.1719C265.832 94.6094 263.293 93.0469 259.973 91.4844C256.717 89.8568 252.421 88.1641 247.082 86.4062C240.832 84.3229 234.81 81.9792 229.016 79.375C223.221 76.7057 218.046 73.6133 213.488 70.0977C208.931 66.5169 205.318 62.3503 202.648 57.5977C199.979 52.7799 198.645 47.181 198.645 40.8008C198.645 34.681 200.012 29.1797 202.746 24.2969C205.48 19.349 209.289 15.1497 214.172 11.6992C219.12 8.18359 224.914 5.51432 231.555 3.69141C238.195 1.80339 245.454 0.859375 253.332 0.859375C263.749 0.859375 272.928 2.68229 280.871 6.32812C288.879 9.90885 295.129 15.0195 299.621 21.6602C304.178 28.2357 306.457 36.0156 306.457 45H272.375C272.375 41.4193 271.626 38.2617 270.129 35.5273C268.697 32.793 266.516 30.6445 263.586 29.082C260.656 27.5195 256.978 26.7383 252.551 26.7383C248.254 26.7383 244.641 27.3893 241.711 28.6914C238.781 29.9935 236.568 31.7513 235.07 33.9648C233.573 36.1133 232.824 38.4896 232.824 41.0938C232.824 43.2422 233.41 45.1953 234.582 46.9531C235.819 48.6458 237.544 50.2409 239.758 51.7383C242.036 53.2357 244.771 54.668 247.961 56.0352C251.216 57.4023 254.862 58.737 258.898 60.0391C266.451 62.4479 273.156 65.1497 279.016 68.1445C284.94 71.0742 289.921 74.4271 293.957 78.2031C298.059 81.9141 301.151 86.1458 303.234 90.8984C305.383 95.651 306.457 101.022 306.457 107.012C306.457 113.392 305.22 119.056 302.746 124.004C300.272 128.952 296.724 133.151 292.102 136.602C287.479 139.987 281.945 142.559 275.5 144.316C269.055 146.074 261.861 146.953 253.918 146.953C246.626 146.953 239.432 146.042 232.336 144.219C225.305 142.331 218.924 139.466 213.195 135.625C207.466 131.719 202.876 126.738 199.426 120.684C196.04 114.564 194.348 107.305 194.348 98.9062H228.723C228.723 103.073 229.276 106.589 230.383 109.453C231.49 112.318 233.117 114.629 235.266 116.387C237.414 118.079 240.051 119.316 243.176 120.098C246.301 120.814 249.882 121.172 253.918 121.172C258.28 121.172 261.796 120.553 264.465 119.316C267.134 118.014 269.087 116.322 270.324 114.238C271.561 112.09 272.18 109.746 272.18 107.207ZM392.98 2.8125V145H358.703V2.8125H392.98ZM435.754 2.8125V29.2773H316.906V2.8125H435.754ZM498.645 32.6953L463.977 145H427.16L479.406 2.8125H502.746L498.645 32.6953ZM527.355 145L492.59 32.6953L488.098 2.8125H511.73L564.27 145H527.355ZM525.988 91.9727V118.438H453.039V91.9727H525.988Z" fill="#002881"/>
</svg>
