<svg width="813" height="111" viewBox="0 0 813 111" fill="none" xmlns="http://www.w3.org/2000/svg">

      <!-- icon's svg -->
      <path opacity="0.03"
        d="M93.8193 53.5557V57.877C93.8193 66.0312 92.6719 73.3555 90.377 79.8496C88.1309 86.2949 84.9326 91.8125 80.7822 96.4023C76.6318 100.943 71.7246 104.435 66.0605 106.876C60.3965 109.269 54.1465 110.465 47.3105 110.465C40.4258 110.465 34.127 109.269 28.4141 106.876C22.75 104.435 17.8184 100.943 13.6191 96.4023C9.46875 91.8125 6.24609 86.2949 3.95117 79.8496C1.70508 73.3555 0.582031 66.0312 0.582031 57.877V53.5557C0.582031 45.4014 1.70508 38.0771 3.95117 31.583C6.24609 25.0889 9.44434 19.5713 13.5459 15.0303C17.6963 10.4404 22.6035 6.94922 28.2676 4.55664C33.9805 2.11523 40.2793 0.894531 47.1641 0.894531C54 0.894531 60.25 2.11523 65.9141 4.55664C71.627 6.94922 76.5586 10.4404 80.709 15.0303C84.8594 19.5713 88.082 25.0889 90.377 31.583C92.6719 38.0771 93.8193 45.4014 93.8193 53.5557ZM67.7451 57.877V53.4092C67.7451 48.1357 67.2812 43.4971 66.3535 39.4932C65.4746 35.4404 64.1562 32.0469 62.3984 29.3125C60.6406 26.5781 58.4678 24.5273 55.8799 23.1602C53.3408 21.7441 50.4355 21.0361 47.1641 21.0361C43.7461 21.0361 40.7676 21.7441 38.2285 23.1602C35.6895 24.5273 33.5654 26.5781 31.8564 29.3125C30.1475 32.0469 28.8535 35.4404 27.9746 39.4932C27.1445 43.4971 26.7295 48.1357 26.7295 53.4092V57.877C26.7295 63.1016 27.1445 67.7402 27.9746 71.793C28.8535 75.7969 30.1475 79.1904 31.8564 81.9736C33.6143 84.7568 35.7627 86.8564 38.3018 88.2725C40.8896 89.6885 43.8926 90.3965 47.3105 90.3965C50.582 90.3965 53.4873 89.6885 56.0264 88.2725C58.5654 86.8564 60.6895 84.7568 62.3984 81.9736C64.1562 79.1904 65.4746 75.7969 66.3535 71.793C67.2812 67.7402 67.7451 63.1016 67.7451 57.877ZM165.011 2.35938H190.719V72.0127C190.719 80.3135 188.985 87.3447 185.519 93.1064C182.052 98.8193 177.193 103.141 170.943 106.07C164.693 109 157.345 110.465 148.897 110.465C140.548 110.465 133.199 109 126.852 106.07C120.553 103.141 115.621 98.8193 112.057 93.1064C108.541 87.3447 106.783 80.3135 106.783 72.0127V2.35938H132.564V72.0127C132.564 76.4072 133.199 79.9961 134.469 82.7793C135.738 85.5137 137.594 87.5156 140.035 88.7852C142.477 90.0547 145.431 90.6895 148.897 90.6895C152.413 90.6895 155.367 90.0547 157.76 88.7852C160.152 87.5156 161.959 85.5137 163.18 82.7793C164.4 79.9961 165.011 76.4072 165.011 72.0127V2.35938ZM206.905 2.35938H248.873C257.076 2.35938 264.205 3.58008 270.26 6.02148C276.314 8.46289 280.978 12.0762 284.249 16.8613C287.569 21.6465 289.229 27.5547 289.229 34.5859C289.229 40.6895 288.277 45.792 286.373 49.8936C284.469 53.9951 281.808 57.3887 278.39 60.0742C275.021 62.7109 271.09 64.8838 266.598 66.5928L258.175 71.3535H222.945L222.799 51.5049H248.873C252.145 51.5049 254.854 50.9189 257.003 49.7471C259.151 48.5752 260.763 46.915 261.837 44.7666C262.96 42.5693 263.521 39.957 263.521 36.9297C263.521 33.8535 262.96 31.2168 261.837 29.0195C260.714 26.8223 259.054 25.1377 256.856 23.9658C254.708 22.7939 252.047 22.208 248.873 22.208H232.613V109H206.905V2.35938ZM265.279 109L241.695 61.832L268.941 61.6855L292.818 107.901V109H265.279ZM397.042 80.6553C397.042 78.9951 396.798 77.5059 396.31 76.1875C395.821 74.8203 394.918 73.5508 393.6 72.3789C392.281 71.207 390.377 70.0352 387.887 68.8633C385.445 67.6426 382.223 66.373 378.219 65.0547C373.531 63.4922 369.015 61.7344 364.669 59.7812C360.323 57.7793 356.441 55.46 353.023 52.8232C349.605 50.1377 346.896 47.0127 344.894 43.4482C342.892 39.835 341.891 35.6357 341.891 30.8506C341.891 26.2607 342.916 22.1348 344.967 18.4727C347.018 14.7617 349.874 11.6123 353.536 9.02441C357.247 6.3877 361.593 4.38574 366.573 3.01855C371.554 1.60254 376.998 0.894531 382.906 0.894531C390.719 0.894531 397.604 2.26172 403.561 4.99609C409.566 7.68164 414.254 11.5146 417.623 16.4951C421.041 21.4268 422.75 27.2617 422.75 34H397.188C397.188 31.3145 396.627 28.9463 395.504 26.8955C394.43 24.8447 392.794 23.2334 390.597 22.0615C388.399 20.8896 385.641 20.3037 382.32 20.3037C379.098 20.3037 376.388 20.792 374.19 21.7686C371.993 22.7451 370.333 24.0635 369.21 25.7236C368.087 27.335 367.525 29.1172 367.525 31.0703C367.525 32.6816 367.965 34.1465 368.844 35.4648C369.771 36.7344 371.065 37.9307 372.726 39.0537C374.435 40.1768 376.485 41.251 378.878 42.2764C381.319 43.3018 384.054 44.3027 387.081 45.2793C392.745 47.0859 397.774 49.1123 402.169 51.3584C406.612 53.5557 410.348 56.0703 413.375 58.9023C416.451 61.6855 418.771 64.8594 420.333 68.4238C421.944 71.9883 422.75 76.0166 422.75 80.5088C422.75 85.2939 421.822 89.542 419.967 93.2529C418.111 96.9639 415.45 100.113 411.983 102.701C408.517 105.24 404.366 107.169 399.532 108.487C394.698 109.806 389.303 110.465 383.346 110.465C377.877 110.465 372.481 109.781 367.159 108.414C361.886 106.998 357.101 104.85 352.804 101.969C348.507 99.0391 345.064 95.3037 342.477 90.7627C339.938 86.1729 338.668 80.7285 338.668 74.4297H364.449C364.449 77.5547 364.864 80.1914 365.694 82.3398C366.524 84.4883 367.745 86.2217 369.356 87.54C370.968 88.8096 372.945 89.7373 375.289 90.3232C377.633 90.8604 380.318 91.1289 383.346 91.1289C386.617 91.1289 389.254 90.665 391.256 89.7373C393.258 88.7607 394.723 87.4912 395.65 85.9287C396.578 84.3174 397.042 82.5596 397.042 80.6553ZM487.643 2.35938V109H461.935V2.35938H487.643ZM519.723 2.35938V22.208H430.587V2.35938H519.723ZM618.819 53.5557V57.877C618.819 66.0312 617.672 73.3555 615.377 79.8496C613.131 86.2949 609.933 91.8125 605.782 96.4023C601.632 100.943 596.725 104.435 591.061 106.876C585.396 109.269 579.146 110.465 572.311 110.465C565.426 110.465 559.127 109.269 553.414 106.876C547.75 104.435 542.818 100.943 538.619 96.4023C534.469 91.8125 531.246 86.2949 528.951 79.8496C526.705 73.3555 525.582 66.0312 525.582 57.877V53.5557C525.582 45.4014 526.705 38.0771 528.951 31.583C531.246 25.0889 534.444 19.5713 538.546 15.0303C542.696 10.4404 547.604 6.94922 553.268 4.55664C558.98 2.11523 565.279 0.894531 572.164 0.894531C579 0.894531 585.25 2.11523 590.914 4.55664C596.627 6.94922 601.559 10.4404 605.709 15.0303C609.859 19.5713 613.082 25.0889 615.377 31.583C617.672 38.0771 618.819 45.4014 618.819 53.5557ZM592.745 57.877V53.4092C592.745 48.1357 592.281 43.4971 591.354 39.4932C590.475 35.4404 589.156 32.0469 587.398 29.3125C585.641 26.5781 583.468 24.5273 580.88 23.1602C578.341 21.7441 575.436 21.0361 572.164 21.0361C568.746 21.0361 565.768 21.7441 563.229 23.1602C560.689 24.5273 558.565 26.5781 556.856 29.3125C555.147 32.0469 553.854 35.4404 552.975 39.4932C552.145 43.4971 551.729 48.1357 551.729 53.4092V57.877C551.729 63.1016 552.145 67.7402 552.975 71.793C553.854 75.7969 555.147 79.1904 556.856 81.9736C558.614 84.7568 560.763 86.8564 563.302 88.2725C565.89 89.6885 568.893 90.3965 572.311 90.3965C575.582 90.3965 578.487 89.6885 581.026 88.2725C583.565 86.8564 585.689 84.7568 587.398 81.9736C589.156 79.1904 590.475 75.7969 591.354 71.793C592.281 67.7402 592.745 63.1016 592.745 57.877ZM632.149 2.35938H674.117C682.32 2.35938 689.449 3.58008 695.504 6.02148C701.559 8.46289 706.222 12.0762 709.493 16.8613C712.813 21.6465 714.474 27.5547 714.474 34.5859C714.474 40.6895 713.521 45.792 711.617 49.8936C709.713 53.9951 707.052 57.3887 703.634 60.0742C700.265 62.7109 696.334 64.8838 691.842 66.5928L683.419 71.3535H648.189L648.043 51.5049H674.117C677.389 51.5049 680.099 50.9189 682.247 49.7471C684.396 48.5752 686.007 46.915 687.081 44.7666C688.204 42.5693 688.766 39.957 688.766 36.9297C688.766 33.8535 688.204 31.2168 687.081 29.0195C685.958 26.8223 684.298 25.1377 682.101 23.9658C679.952 22.7939 677.291 22.208 674.117 22.208H657.857V109H632.149V2.35938ZM690.523 109L666.939 61.832L694.186 61.6855L718.062 107.901V109H690.523ZM745.821 2.35938L765.45 48.6484L785.152 2.35938H812.838L778.561 70.6943V109H752.413V70.6943L718.062 2.35938H745.821Z"
        fill="#002881" />
    </svg>