<svg width="915" height="147" viewBox="0 0 915 147" fill="none" xmlns="http://www.w3.org/2000/svg">
      <path opacity="0.03" d="M78.2031 107.207C78.2031 104.993 77.8776 103.008 77.2266 101.25C76.5755 99.4271 75.3711 97.7344 73.6133 96.1719C71.8555 94.6094 69.3164 93.0469 65.9961 91.4844C62.7409 89.8568 58.444 88.1641 53.1055 86.4062C46.8555 84.3229 40.8333 81.9792 35.0391 79.375C29.2448 76.7057 24.069 73.6133 19.5117 70.0977C14.9544 66.5169 11.3411 62.3503 8.67188 57.5977C6.0026 52.7799 4.66797 47.181 4.66797 40.8008C4.66797 34.681 6.03516 29.1797 8.76953 24.2969C11.5039 19.349 15.3125 15.1497 20.1953 11.6992C25.1432 8.18359 30.9375 5.51432 37.5781 3.69141C44.2188 1.80339 51.4779 0.859375 59.3555 0.859375C69.7721 0.859375 78.9518 2.68229 86.8945 6.32812C94.9023 9.90885 101.152 15.0195 105.645 21.6602C110.202 28.2357 112.48 36.0156 112.48 45H78.3984C78.3984 41.4193 77.6497 38.2617 76.1523 35.5273C74.7201 32.793 72.5391 30.6445 69.6094 29.082C66.6797 27.5195 63.0013 26.7383 58.5742 26.7383C54.2773 26.7383 50.6641 27.3893 47.7344 28.6914C44.8047 29.9935 42.5911 31.7513 41.0938 33.9648C39.5964 36.1133 38.8477 38.4896 38.8477 41.0938C38.8477 43.2422 39.4336 45.1953 40.6055 46.9531C41.8424 48.6458 43.5677 50.2409 45.7812 51.7383C48.0599 53.2357 50.7943 54.668 53.9844 56.0352C57.2396 57.4023 60.8854 58.737 64.9219 60.0391C72.474 62.4479 79.1797 65.1497 85.0391 68.1445C90.9635 71.0742 95.944 74.4271 99.9805 78.2031C104.082 81.9141 107.174 86.1458 109.258 90.8984C111.406 95.651 112.48 101.022 112.48 107.012C112.48 113.392 111.243 119.056 108.77 124.004C106.296 128.952 102.747 133.151 98.125 136.602C93.5026 139.987 87.9688 142.559 81.5234 144.316C75.0781 146.074 67.8841 146.953 59.9414 146.953C52.6497 146.953 45.4557 146.042 38.3594 144.219C31.3281 142.331 24.9479 139.466 19.2188 135.625C13.4896 131.719 8.89974 126.738 5.44922 120.684C2.0638 114.564 0.371094 107.305 0.371094 98.9062H34.7461C34.7461 103.073 35.2995 106.589 36.4062 109.453C37.513 112.318 39.1406 114.629 41.2891 116.387C43.4375 118.079 46.0742 119.316 49.1992 120.098C52.3242 120.814 55.9049 121.172 59.9414 121.172C64.3034 121.172 67.819 120.553 70.4883 119.316C73.1576 118.014 75.1107 116.322 76.3477 114.238C77.5846 112.09 78.2031 109.746 78.2031 107.207ZM228.008 118.633V145H152.227V118.633H228.008ZM164.434 2.8125V145H130.156V2.8125H164.434ZM218.242 59.2578V84.7461H152.227V59.2578H218.242ZM228.301 2.8125V29.2773H152.227V2.8125H228.301ZM242.07 2.8125H298.027C308.965 2.8125 318.47 4.4401 326.543 7.69531C334.616 10.9505 340.833 15.7682 345.195 22.1484C349.622 28.5286 351.836 36.4062 351.836 45.7812C351.836 53.9193 350.566 60.7227 348.027 66.1914C345.488 71.6602 341.94 76.1849 337.383 79.7656C332.891 83.2812 327.65 86.1784 321.66 88.457L310.43 94.8047H263.457L263.262 68.3398H298.027C302.389 68.3398 306.003 67.5586 308.867 65.9961C311.732 64.4336 313.88 62.2201 315.312 59.3555C316.81 56.4258 317.559 52.9427 317.559 48.9062C317.559 44.8047 316.81 41.2891 315.312 38.3594C313.815 35.4297 311.602 33.1836 308.672 31.6211C305.807 30.0586 302.259 29.2773 298.027 29.2773H276.348V145H242.07V2.8125ZM319.902 145L288.457 82.1094L324.785 81.9141L356.621 143.535V145H319.902ZM424.395 111.504L453.984 2.8125H492.363L444.414 145H419.609L424.395 111.504ZM397.539 2.8125L427.129 111.504L432.109 145H407.012L359.355 2.8125H397.539ZM539.238 2.8125V145H505.059V2.8125H539.238ZM644.219 96.8555H678.398C677.943 106.751 675.273 115.475 670.391 123.027C665.508 130.579 658.737 136.471 650.078 140.703C641.484 144.87 631.328 146.953 619.609 146.953C610.104 146.953 601.608 145.358 594.121 142.168C586.699 138.978 580.384 134.388 575.176 128.398C570.033 122.409 566.094 115.15 563.359 106.621C560.69 98.0924 559.355 88.4896 559.355 77.8125V70.0977C559.355 59.4206 560.755 49.8177 563.555 41.2891C566.419 32.6953 570.456 25.4036 575.664 19.4141C580.938 13.3594 587.253 8.73698 594.609 5.54688C601.966 2.35677 610.137 0.761719 619.121 0.761719C631.491 0.761719 641.94 2.97526 650.469 7.40234C658.997 11.8294 665.605 17.9167 670.293 25.6641C674.98 33.3464 677.747 42.1029 678.594 51.9336H644.414C644.284 46.5951 643.372 42.1354 641.68 38.5547C639.987 34.9089 637.318 32.1745 633.672 30.3516C630.026 28.5286 625.176 27.6172 619.121 27.6172C614.889 27.6172 611.211 28.3984 608.086 29.9609C604.961 31.5234 602.357 33.9974 600.273 37.3828C598.19 40.7682 596.628 45.1628 595.586 50.5664C594.609 55.9049 594.121 62.3503 594.121 69.9023V77.8125C594.121 85.3646 594.577 91.8099 595.488 97.1484C596.4 102.487 597.865 106.849 599.883 110.234C601.901 113.62 604.505 116.126 607.695 117.754C610.951 119.316 614.922 120.098 619.609 120.098C624.818 120.098 629.212 119.284 632.793 117.656C636.374 115.964 639.141 113.424 641.094 110.039C643.047 106.589 644.089 102.194 644.219 96.8555ZM792.461 118.633V145H716.68V118.633H792.461ZM728.887 2.8125V145H694.609V2.8125H728.887ZM782.695 59.2578V84.7461H716.68V59.2578H782.695ZM792.754 2.8125V29.2773H716.68V2.8125H792.754ZM879.766 107.207C879.766 104.993 879.44 103.008 878.789 101.25C878.138 99.4271 876.934 97.7344 875.176 96.1719C873.418 94.6094 870.879 93.0469 867.559 91.4844C864.303 89.8568 860.007 88.1641 854.668 86.4062C848.418 84.3229 842.396 81.9792 836.602 79.375C830.807 76.7057 825.632 73.6133 821.074 70.0977C816.517 66.5169 812.904 62.3503 810.234 57.5977C807.565 52.7799 806.23 47.181 806.23 40.8008C806.23 34.681 807.598 29.1797 810.332 24.2969C813.066 19.349 816.875 15.1497 821.758 11.6992C826.706 8.18359 832.5 5.51432 839.141 3.69141C845.781 1.80339 853.04 0.859375 860.918 0.859375C871.335 0.859375 880.514 2.68229 888.457 6.32812C896.465 9.90885 902.715 15.0195 907.207 21.6602C911.764 28.2357 914.043 36.0156 914.043 45H879.961C879.961 41.4193 879.212 38.2617 877.715 35.5273C876.283 32.793 874.102 30.6445 871.172 29.082C868.242 27.5195 864.564 26.7383 860.137 26.7383C855.84 26.7383 852.227 27.3893 849.297 28.6914C846.367 29.9935 844.154 31.7513 842.656 33.9648C841.159 36.1133 840.41 38.4896 840.41 41.0938C840.41 43.2422 840.996 45.1953 842.168 46.9531C843.405 48.6458 845.13 50.2409 847.344 51.7383C849.622 53.2357 852.357 54.668 855.547 56.0352C858.802 57.4023 862.448 58.737 866.484 60.0391C874.036 62.4479 880.742 65.1497 886.602 68.1445C892.526 71.0742 897.507 74.4271 901.543 78.2031C905.645 81.9141 908.737 86.1458 910.82 90.8984C912.969 95.651 914.043 101.022 914.043 107.012C914.043 113.392 912.806 119.056 910.332 124.004C907.858 128.952 904.31 133.151 899.688 136.602C895.065 139.987 889.531 142.559 883.086 144.316C876.641 146.074 869.447 146.953 861.504 146.953C854.212 146.953 847.018 146.042 839.922 144.219C832.891 142.331 826.51 139.466 820.781 135.625C815.052 131.719 810.462 126.738 807.012 120.684C803.626 114.564 801.934 107.305 801.934 98.9062H836.309C836.309 103.073 836.862 106.589 837.969 109.453C839.076 112.318 840.703 114.629 842.852 116.387C845 118.079 847.637 119.316 850.762 120.098C853.887 120.814 857.467 121.172 861.504 121.172C865.866 121.172 869.382 120.553 872.051 119.316C874.72 118.014 876.673 116.322 877.91 114.238C879.147 112.09 879.766 109.746 879.766 107.207Z" fill="#002881"/>
      </svg>