  <svg width="90" height="30" viewBox="0 0 110 30" fill="none" xmlns="http://www.w3.org/2000/svg">
    <path fill-rule="evenodd" clip-rule="evenodd" d="M14.557 20.6975L18.707 23.2075C19.467 23.6675 20.397 22.9875 20.197 22.1275L19.097 17.4075L22.767 14.2275C23.437 13.6475 23.077 12.5475 22.197 12.4775L17.367 12.0675L15.477 7.6075C15.137 6.7975 13.977 6.7975 13.637 7.6075L11.747 12.0575L6.91696 12.4675C6.03696 12.5375 5.67696 13.6375 6.34696 14.2175L10.017 17.3975L8.91696 22.1175C8.71696 22.9775 9.64696 23.6575 10.407 23.1975L14.557 20.6975Z" fill="#3361FF"/>
    <path fill-rule="evenodd" clip-rule="evenodd" d="M34.557 20.6975L38.707 23.2075C39.467 23.6675 40.397 22.9875 40.197 22.1275L39.097 17.4075L42.767 14.2275C43.437 13.6475 43.077 12.5475 42.197 12.4775L37.367 12.0675L35.477 7.6075C35.137 6.7975 33.977 6.7975 33.637 7.6075L31.747 12.0575L26.917 12.4675C26.037 12.5375 25.677 13.6375 26.347 14.2175L30.017 17.3975L28.917 22.1175C28.717 22.9775 29.647 23.6575 30.407 23.1975L34.557 20.6975Z" fill="#3361FF"/>
    <path fill-rule="evenodd" clip-rule="evenodd" d="M54.557 20.6975L58.707 23.2075C59.467 23.6675 60.397 22.9875 60.197 22.1275L59.097 17.4075L62.767 14.2275C63.437 13.6475 63.077 12.5475 62.197 12.4775L57.367 12.0675L55.477 7.6075C55.137 6.7975 53.977 6.7975 53.637 7.6075L51.747 12.0575L46.917 12.4675C46.037 12.5375 45.677 13.6375 46.347 14.2175L50.017 17.3975L48.917 22.1175C48.717 22.9775 49.647 23.6575 50.407 23.1975L54.557 20.6975Z" fill="#3361FF"/>
    <path fill-rule="evenodd" clip-rule="evenodd" d="M74.557 20.6975L78.707 23.2075C79.467 23.6675 80.397 22.9875 80.197 22.1275L79.097 17.4075L82.767 14.2275C83.437 13.6475 83.077 12.5475 82.197 12.4775L77.367 12.0675L75.477 7.6075C75.137 6.7975 73.977 6.7975 73.637 7.6075L71.747 12.0575L66.917 12.4675C66.037 12.5375 65.677 13.6375 66.347 14.2175L70.017 17.3975L68.917 22.1175C68.717 22.9775 69.647 23.6575 70.407 23.1975L74.557 20.6975Z" fill="#3361FF"/>
    <path fill-rule="evenodd" clip-rule="evenodd" d="M94.557 20.6975L98.707 23.2075C99.467 23.6675 100.397 22.9875 100.197 22.1275L99.097 17.4075L102.767 14.2275C103.437 13.6475 103.077 12.5475 102.197 12.4775L97.367 12.0675L95.477 7.6075C95.137 6.7975 93.977 6.7975 93.637 7.6075L91.747 12.0575L86.917 12.4675C86.037 12.5375 85.677 13.6375 86.347 14.2175L90.017 17.3975L88.917 22.1175C88.717 22.9775 89.647 23.6575 90.407 23.1975L94.557 20.6975Z" fill="#3361FF"/>
    </svg>
